<svg width="1440" height="549" viewBox="0 0 1440 549" fill="none" xmlns="http://www.w3.org/2000/svg">
  <defs>
    <radialGradient id="paint0_radial_905_7503" cx="0" cy="0" r="1" gradientUnits="userSpaceOnUse" gradientTransform="translate(720.015 254.928) rotate(179.961) scale(726.515 334.964)">
      <stop stop-color="#E6E5DE"/>
      <stop offset="1" stop-color="#E6E5DE" stop-opacity="0"/>
    </radialGradient>
  </defs>
  <path opacity="0.1" d="M720.02 1064.43C1055.33 1064.43 1327.15 702.002 1327.15 254.928C1327.15 -192.147 1055.33 -554.572 720.02 -554.572M720.02 1064.43C384.714 1064.43 112.895 702.002 112.895 254.928C112.895 -192.147 384.714 -554.572 720.02 -554.572M720.02 1064.43C943.557 1064.43 1124.77 702.002 1124.77 254.928C1124.77 -192.147 943.557 -554.572 720.02 -554.572M720.02 1064.43C496.483 1064.43 315.27 702.002 315.27 254.928C315.27 -192.147 496.483 -554.572 720.02 -554.572M720.02 1064.43C831.789 1064.43 922.395 702.002 922.395 254.928C922.395 -192.147 831.789 -554.572 720.02 -554.572M720.02 1064.43C608.252 1064.43 517.645 702.002 517.645 254.928C517.645 -192.147 608.252 -554.572 720.02 -554.572M720.02 1064.43V-554.572M1529.53 254.928C1529.53 702.002 1167.1 1064.43 720.025 1064.43C272.951 1064.43 -89.4749 702.002 -89.4749 254.928C-89.4749 -192.147 272.951 -554.572 720.025 -554.572C1167.1 -554.572 1529.53 -192.147 1529.53 254.928ZM719.784 -55.6556C361.301 -55.6556 70.6921 -128.494 70.6921 -218.346C70.6921 -308.197 361.301 -381.036 719.784 -381.036C1078.27 -381.036 1368.88 -308.197 1368.88 -218.346C1368.88 -128.494 1078.27 -55.6555 719.784 -55.6556ZM716.447 177.951C297.141 177.951 -42.7738 87.9295 -42.7738 -23.1176C-42.7738 -134.165 297.141 -224.186 716.447 -224.186C1135.75 -224.186 1475.67 -134.165 1475.67 -23.1175C1475.67 87.9296 1135.75 177.951 716.447 177.951ZM720.004 457.305C272.929 457.305 -89.4961 366.698 -89.4961 254.93C-89.4961 143.161 272.929 52.5548 720.004 52.5548C1167.08 52.5549 1529.5 143.161 1529.5 254.93C1529.5 366.698 1167.08 457.305 720.004 457.305Z" stroke="url(#paint0_radial_905_7503)" stroke-width="3.77273"/>
</svg>
